{"title":"The Big Bang 2011.DvDRip.x264.Feel-Free","uid":6108479,"size":1449325077,"categoryP":"video","categoryS":"movies","magnet":"?xt=urn:btih:d1f04fe8fa71375a7df9cf117901e0a3f0f91909&amp;dn=The+Big+Bang+2011.DvDRip.x264.Feel-Free&amp;tr=udp%3A%2F%2Ftracker.openbittorrent.com%3A80&amp;tr=udp%3A%2F%2Fopen.demonii.com%3A1337&amp;tr=udp%3A%2F%2Ftracker.coppersurfer.tk%3A6969&amp;tr=udp%3A%2F%2Fexodus.desync.com%3A6969","seeders":0,"leechers":0,"uploader":"neon","files":-1,"time":1295257776,"description":"Genre:Action | Mystery | Thriller\nLanguage:English\n &lt;a href=&quot; http://www.imdb.com/title/tt1307873/&quot; rel=&quot;nofollow&quot; target=&quot;_NEW&quot;&gt; http://www.imdb.com/title/tt1307873/&lt;/a&gt;\nSource:DVD\n &lt;a href=&quot;\nhttp://shareimage.org/images/xcsdjgv8zfgxfbwj0cj.png&quot; rel=&quot;nofollow&quot; target=&quot;_NEW&quot;&gt;\nhttp://shareimage.org/images/xcsdjgv8zfgxfbwj0cj.png&lt;/a&gt; &lt;a href=&quot;\nhttp://shareimage.org/images/cgd5z8tg1alr4ny9yiqa.png&quot; rel=&quot;nofollow&quot; target=&quot;_NEW&quot;&gt;\nhttp://shareimage.org/images/cgd5z8tg1alr4ny9yiqa.png&lt;/a&gt; &lt;a href=&quot;\nhttp://shareimage.org/images/xzk3x1zcqseare1mun5.png&quot; rel=&quot;nofollow&quot; target=&quot;_NEW&quot;&gt;\nhttp://shareimage.org/images/xzk3x1zcqseare1mun5.png&lt;/a&gt; &lt;a href=&quot;\nhttp://shareimage.org/images/3dcqbxrfslcbw8fokft2.png&quot; rel=&quot;nofollow&quot; target=&quot;_NEW&quot;&gt;\nhttp://shareimage.org/images/3dcqbxrfslcbw8fokft2.png&lt;/a&gt;\n\n\nFormat : Matroska\nFile size : 1.35 GiB\nDuration : 1h 36mn\nOverall bit rate : 1 990 Kbps\n\n\nVideo\nFormat settings, CABAC : Yes\nFormat settings, ReFrames : 4 frames\nFormat settings, GOP : M=4, N=15\nCodec ID : V_MPEG4/ISO/AVC\nDuration : 1h 36mn\nBit rate : 1 500 Kbps\nWidth : 720 pixels\nHeight : 304 pixels\nDisplay aspect ratio : 2.35:1\nFrame rate mode : Variable\nFrame rate : 25.000 fps\nColor space : YUV\nChroma subsampling : 4:2:0\nBit depth : 8 bits\nScan type : Progressive\nBits/(Pixel*Frame) : 0.274\nStream size : 1.02 GiB (76%)\nWriting library : x264\n\nAudio\nID : 2\nFormat : AC-3\nFormat/Info : Audio Coding 3\nMode extension : CM (complete main)\nCodec ID : A_AC3\nDuration : 1h 36mn\nBit rate mode : Constant\nBit rate : 448 Kbps\nChannel(s) : 6 channels\nChannel positions : Front: L C R, Side: L R, LFE\nSampling rate : 48.0 KHz\nBit depth : 16 bits\nVideo delay : -1mn 5s\nStream size : 311 MiB (23%)\nLanguage : English\n\n\nPlot:\nA private detective is hired to find a missing stripper. A simple job turns complicated when everyone he questions ends up dead.\n\n\nTRAILER: http://hiphopblog.com/component/content/video/14357.html?&amp;index=1&amp;Itemid=82\n","torrent":{"xt":"urn:btih:d1f04fe8fa71375a7df9cf117901e0a3f0f91909","amp;dn":"The+Big+Bang+2011.DvDRip.x264.Feel-Free","amp;tr":["udp%3A%2F%2Ftracker.openbittorrent.com%3A80","udp%3A%2F%2Fopen.demonii.com%3A1337","udp%3A%2F%2Ftracker.coppersurfer.tk%3A6969","udp%3A%2F%2Fexodus.desync.com%3A6969"],"infoHash":"d1f04fe8fa71375a7df9cf117901e0a3f0f91909","infoHashBuffer":{"type":"Buffer","data":[209,240,79,232,250,113,55,90,125,249,207,17,121,1,224,163,240,249,25,9]},"announce":[],"urlList":[]}}